<svg id="Layer_1" height="512" viewBox="0 0 512 512" width="512" xmlns="http://www.w3.org/2000/svg" data-name="Layer 1"><path d="m121.086 76.079a27.206 27.206 0 0 1 17.127 17.127 5 5 0 0 0 9.487 0 27.206 27.206 0 0 1 17.127-17.127 5 5 0 0 0 0-9.487 27.214 27.214 0 0 1 -17.127-17.128 5 5 0 0 0 -9.487 0 27.214 27.214 0 0 1 -17.128 17.128 5 5 0 0 0 0 9.487z"/><path d="m497.581 97.026a27.211 27.211 0 0 1 -17.127-17.126 5 5 0 0 0 -9.487 0 27.212 27.212 0 0 1 -17.128 17.127 5 5 0 0 0 0 9.487 27.211 27.211 0 0 1 17.128 17.128 5 5 0 0 0 9.487 0 27.21 27.21 0 0 1 17.127-17.128 5 5 0 0 0 0-9.487z"/><path d="m40.548 390.344-16.837-15.023a42.076 42.076 0 0 0 -9 12.8l22.669 5.569a19.574 19.574 0 0 1 3.168-3.346z"/><path d="m77 302h22v10h-22z"/><path d="m99 322h-22v10.087l22 2.273z"/><path d="m99.135 344.384-22.351-2.262a23.855 23.855 0 0 1 -2.842 8.891l18.383 13.01a46.176 46.176 0 0 0 6.81-19.639z"/><path d="m77 281h22v11h-22z"/><path d="m52.906 385.9a46.486 46.486 0 0 0 9.4-.955l-14.98-21.126a41.583 41.583 0 0 0 -15.5 5.333l18.915 16.877a19.49 19.49 0 0 1 2.165-.129z"/><path d="m86.13 371.889-18.78-13.289a23.947 23.947 0 0 1 -8.559 4.107l13.449 18.966a46.691 46.691 0 0 0 13.89-9.784z"/><path d="m139.874 242.19a164.64 164.64 0 0 0 13.793 49.3 116.239 116.239 0 0 1 10.333 48.981v25.529h253v-13.993l-118.592-73.521a60.234 60.234 0 0 1 -6.1 1.076 56.279 56.279 0 0 1 -7.038.444 55.308 55.308 0 0 1 -54.92-48.132 54.488 54.488 0 0 1 11.261-40.685 55.342 55.342 0 0 1 36.9-20.9 56.1 56.1 0 0 1 6.264-.424l105.454-91.4c-.909-.522-1.816-1.05-2.736-1.555a167.2 167.2 0 0 0 -101.861-19.36c-43.508 5.443-82.781 27.852-110.586 63.1s-40.34 78.403-35.172 121.54z"/><path d="m330.55 219.235a45.3 45.3 0 0 0 -45.006-39.384 46.155 46.155 0 0 0 -5.779.364 45.4 45.4 0 0 0 -30.275 17.138 44.556 44.556 0 0 0 -9.215 33.268 45.3 45.3 0 0 0 45.006 39.384 46.171 46.171 0 0 0 5.78-.364 45.4 45.4 0 0 0 30.275-17.141 44.553 44.553 0 0 0 9.214-33.265zm-23.2 22.621a27.722 27.722 0 0 1 -18.482 10.469 28.224 28.224 0 0 1 -3.524.222 27.726 27.726 0 0 1 -27.524-24.138 27.335 27.335 0 0 1 5.651-20.409 27.85 27.85 0 0 1 49.529 13.447 27.334 27.334 0 0 1 -5.646 20.409z"/><path d="m285.47 207.309a18.1 18.1 0 0 0 -2.265.143 17.779 17.779 0 0 0 -11.859 6.711 17.407 17.407 0 0 0 -3.6 12.993 17.851 17.851 0 0 0 31.735 8.537 17.4 17.4 0 0 0 3.6-12.993 17.714 17.714 0 0 0 -17.611-15.391z"/><path d="m102.154 262.583-22.188-4.7a62.307 62.307 0 0 0 -2.791 13.117h22.6a33.288 33.288 0 0 1 2.379-8.417z"/><path d="m164 376h253v20h-253z"/><path d="m33.61 403.062-21.9-5.375a41.72 41.72 0 0 0 1.117 19.9l20.65-12.507a19.461 19.461 0 0 1 .133-2.018z"/><path d="m108.794 252.674-18.507-12.965a57.151 57.151 0 0 0 -6.179 8.957l23.689 5.113q.488-.562.997-1.105z"/><path d="m97.483 232.54 18.483 12.949-9.644-19a57.164 57.164 0 0 0 -8.839 6.051z"/><path d="m115.476 222.433 10.336 20.361a34.219 34.219 0 0 1 4.075-.72 170.629 170.629 0 0 1 -1.028-22.465 56.4 56.4 0 0 0 -13.383 2.824z"/><path d="m84 425h11v22h-11z"/><path d="m16.927 426.8a42.223 42.223 0 0 0 11.91 12.818l10.263-20.608a19.539 19.539 0 0 1 -2.949-3.857z"/><circle cx="350.89" cy="436.017" r="10"/><circle cx="230.89" cy="436.017" r="10"/><path d="m340.471 217.982a54.489 54.489 0 0 1 -11.26 40.684 55.332 55.332 0 0 1 -18.976 15.5l110.823 68.804a165.786 165.786 0 0 0 51.38-141.632 163.046 163.046 0 0 0 -28.138-73.406 167.827 167.827 0 0 0 -45.142-43.97l-100.828 87.393a55.181 55.181 0 0 1 42.141 46.627zm97.917-42.25a5 5 0 0 1 6.269 3.268 144.049 144.049 0 0 1 6.148 54.492 5 5 0 0 1 -4.978 4.6c-.134 0-.269-.006-.4-.017a5 5 0 0 1 -4.585-5.383 134.093 134.093 0 0 0 -5.725-50.692 5 5 0 0 1 3.271-6.268zm-21.8-39.374a5 5 0 0 1 6.99 1.069 143.064 143.064 0 0 1 9.59 14.911 5 5 0 1 1 -8.73 4.876 133.461 133.461 0 0 0 -8.918-13.866 5 5 0 0 1 1.065-6.99z"/><path d="m388 466v-60h-194v60zm-37.11-49.983a20 20 0 1 1 -20 20 20.023 20.023 0 0 1 20-20zm-60 0a20 20 0 1 1 -20 20 20.023 20.023 0 0 1 20-20zm-60 0a20 20 0 1 1 -20 20 20.023 20.023 0 0 1 20-20z"/><path d="m437 453.008v-33.983a13.373 13.373 0 0 0 -13.267-13.025h-25.733v60h25.733a13.344 13.344 0 0 0 13.267-12.992z"/><circle cx="290.89" cy="436.017" r="10"/><path d="m184 466v-60h-25.953a13.18 13.18 0 0 0 -13.047 13.025v33.983a13.15 13.15 0 0 0 13.047 12.992z"/><path d="m64 425h10v22h-10z"/><path d="m54 447v-22h-1.094a19.445 19.445 0 0 1 -5.156-.9l-10.1 20.143a41.587 41.587 0 0 0 15.256 2.757z"/><path d="m105 425h10v22h-10z"/><path d="m125 425h10v22h-10z"/><path d="m94.375 172.974a5.14 5.14 0 0 0 .758.057 5 5 0 0 0 4.937-4.249 164.174 164.174 0 0 1 8.576-32.851 169.871 169.871 0 0 1 15.479-31.105 5 5 0 1 0 -8.451-5.346 179.877 179.877 0 0 0 -16.392 32.941 174.193 174.193 0 0 0 -9.1 34.857 5 5 0 0 0 4.193 5.696z"/></svg>